PathFileType  4	(X/Y/Z) C:\Users\antoi\Documents\MyRepositories\mobilecap\ResultsAnalysis
DataRate	CameraRate	NumFrames	NumMarkers	Units	OrigDataRate	OrigDataStartFrame	OrigNumFrames
100.0	100.0	6	51	mm	100.0	1	133
Frame#	Time	r_knee			r_shank_antsup			r_ankle			r_calc			r_5meta			r_toe			L_knee			L_shank_antsup			L_ankle			L_calc			L_5meta			L_toe			r_sh2			r_sh3			r_sh4			L_sh2			L_sh3			r_thigh1			r_thigh2			r_thigh3			r_thigh4			r_thigh5			L_thigh1			L_thigh2			L_thigh3			L_thigh4			r.ASIS			r.PSIS			L.ASIS			L.PSIS			C7			R_Shoulder			L_Shoulder			R_Sternum			L_Sternum			R_humerus			R_elbow_med			R_elbow_lat			R_forearm			R_wrist_radius			R_wrist_ulna			L_humerus			L_elbow_med			L_elbow_lat			L_forearm			L_wrist_radius			L_wrist_ulna			R_HJC			L_HJC			R_HJC_reg			L_HJC_reg			
		X1	Y1	Z1	X2	Y2	Z2	X3	Y3	Z3	X4	Y4	Z4	X5	Y5	Z5	X6	Y6	Z6	X7	Y7	Z7	X8	Y8	Z8	X9	Y9	Z9	X10	Y10	Z10	X11	Y11	Z11	X12	Y12	Z12	X13	Y13	Z13	X14	Y14	Z14	X15	Y15	Z15	X16	Y16	Z16	X17	Y17	Z17	X18	Y18	Z18	X19	Y19	Z19	X20	Y20	Z20	X21	Y21	Z21	X22	Y22	Z22	X23	Y23	Z23	X24	Y24	Z24	X25	Y25	Z25	X26	Y26	Z26	X27	Y27	Z27	X28	Y28	Z28	X29	Y29	Z29	X30	Y30	Z30	X31	Y31	Z31	X32	Y32	Z32	X33	Y33	Z33	X34	Y34	Z34	X35	Y35	Z35	X36	Y36	Z36	X37	Y37	Z37	X38	Y38	Z38	X39	Y39	Z39	X40	Y40	Z40	X41	Y41	Z41	X42	Y42	Z42	X43	Y43	Z43	X44	Y44	Z44	X45	Y45	Z45	X46	Y46	Z46	X47	Y47	Z47	X48	Y48	Z48	X49	Y49	Z49	X50	Y50	Z50	X51	Y51	Z51	

1	0.00000000	145.58442	497.96258	-19.04177	199.44174	449.22241	-42.64910	250.57495	106.92441	-35.82738	193.34618	56.87534	-57.32732	375.81780	84.30190	-34.82464	396.45544	129.74098	-94.38900	-174.66504	481.28363	-267.37280	-179.02752	375.73913	-262.61838	-376.79488	131.15982	-233.65246	-461.94081	117.74399	-204.94408	-291.68568	41.38612	-250.59165	-257.85261	53.95531	-186.37341	216.77667	336.45799	-15.48034	126.31790	438.78769	-2.77162	144.02234	327.02511	1.09502	-252.92365	424.51251	-280.26832	-310.18429	315.94867	-279.34661	83.02292	811.67534	11.35903	124.29154	703.89564	0.63381	82.89668	665.34868	38.45370	-17.08593	771.55134	47.31278	22.70751	661.86707	33.43817	-79.55879	729.32334	-330.72617	-102.37378	598.88793	-296.91520	-181.62122	756.28477	-283.63740	-203.55173	618.76195	-261.40879	53.51264	950.92177	-35.93548	-146.56868	981.80319	-71.96232	15.32022	925.82051	-284.34668	-170.59553	984.42617	-169.70577	-154.48148	1399.00699	-150.22506	-40.45650	1357.47105	19.29365	-88.19185	1364.93010	-335.23900	-13.90706	1362.43026	-142.03327	-11.73680	1362.86378	-184.85654	-35.81814	1227.35145	87.47545	-130.19857	1025.72794	78.97677	-95.04632	1044.14353	139.75894	-25.86195	917.95479	139.76013	9.23349	789.66389	141.25087	-9.50553	782.91534	174.23056	-49.34946	1262.95806	-402.92323	-72.62701	1021.59189	-406.91142	-25.63654	1058.88137	-458.87233	57.07421	984.40302	-411.55684	138.32642	852.15422	-383.89639	142.22687	852.14654	-418.19638	-22.13521	868.45793	-37.85342	-62.77488	856.44429	-239.92814	-13.31315	859.30082	-57.14888	-53.09303	863.64364	-218.97717	
2	0.01000000	157.33404	497.94219	-19.01519	211.40891	448.16402	-43.83353	256.38965	104.91167	-36.71086	196.43167	58.51453	-58.40806	379.41203	77.43707	-36.43639	401.88078	121.39077	-96.65103	-161.25829	480.47987	-266.66557	-168.06065	374.99519	-262.80904	-372.02310	135.49617	-234.10842	-457.35515	125.24917	-204.84956	-290.85768	41.64716	-250.58752	-256.21484	53.27932	-186.65961	227.71389	335.23581	-16.57742	138.78592	438.66300	-2.45342	155.03059	326.66519	1.09573	-240.75575	425.74391	-279.53098	-301.17745	319.03588	-279.05819	97.64425	811.61752	11.26074	136.75051	703.71252	0.75335	95.15550	665.27093	38.16012	-3.29334	772.35523	47.59967	35.10128	662.32002	33.51170	-66.91862	728.53645	-329.92922	-89.23356	597.95428	-296.30761	-168.29112	755.17540	-281.42098	-189.83975	617.63172	-259.33497	67.57557	951.01754	-35.11644	-132.84907	981.91970	-71.13178	28.53197	925.05943	-283.47532	-157.04841	984.04360	-168.86667	-141.08452	1398.55275	-148.51098	-26.69774	1356.77118	20.76363	-75.21465	1364.46808	-333.76769	-0.40933	1362.03503	-140.60797	1.65358	1362.52334	-183.44398	-22.42013	1226.49785	88.75702	-117.56594	1025.27328	79.90468	-82.40272	1043.51173	140.68712	-14.48028	916.63014	141.11112	18.99904	788.07077	143.05561	0.04150	781.60865	176.00007	-36.47666	1262.23603	-401.04422	-59.26284	1020.80391	-404.06202	-12.43905	1058.03521	-456.30101	70.62653	983.97374	-408.85251	152.03986	852.03914	-380.92775	156.08894	851.93310	-415.21531	-8.32856	868.61816	-36.73027	-49.35429	855.82423	-238.67549	0.43280	859.50981	-55.74751	-39.65038	863.02724	-217.63261	
3	0.02000000	169.24940	497.94503	-19.01779	223.32402	447.07035	-44.96050	261.91342	102.94750	-37.53111	199.40644	60.08340	-59.42857	382.80626	70.83991	-37.99939	407.00374	113.31182	-98.84788	-147.36011	479.61774	-266.11895	-156.65663	374.25972	-263.16766	-366.83688	139.97446	-234.62977	-452.27104	133.13247	-204.76898	-289.91002	41.98004	-250.58730	-254.43772	52.60771	-186.94270	238.46574	333.96016	-17.68378	151.22569	438.56957	-2.10111	165.91094	326.35217	1.20066	-228.09032	427.00645	-278.90207	-291.66300	322.18413	-278.83735	112.18715	811.67257	11.22193	149.39790	703.62232	0.85292	107.68787	665.30747	37.96425	10.57231	773.18864	47.97819	47.70189	662.82865	33.72186	-54.10008	727.82286	-329.12666	-75.74522	597.04100	-295.80764	-154.82221	753.97554	-279.23289	-175.81252	616.40213	-257.32355	81.65035	951.27227	-34.28952	-119.10318	982.11415	-70.32022	41.85620	924.41488	-282.56369	-143.45889	983.71406	-168.05329	-127.65843	1398.14540	-146.78283	-12.87438	1356.14791	22.22220	-62.19737	1364.10633	-332.27530	13.12487	1361.69864	-139.17915	15.06054	1362.24711	-182.03714	-8.92180	1225.72394	90.02669	-104.86288	1024.91211	80.83464	-69.65984	1042.95868	141.61710	-3.00289	915.40366	142.44166	28.87375	786.57174	144.82613	9.75818	780.39434	177.74630	-23.57592	1261.62612	-399.15872	-46.04707	1020.15192	-401.24704	0.63851	1057.28214	-453.77177	83.99733	983.58518	-406.19283	165.56844	851.94414	-378.00975	169.72398	851.72910	-412.28940	5.53592	868.90872	-35.58606	-35.81729	855.29477	-237.40952	14.24869	859.87023	-54.33205	-26.10314	862.52067	-216.25332	
4	0.03000000	181.42039	497.99202	-19.06476	235.12473	445.92858	-45.98354	266.91891	101.09079	-38.23784	202.16279	61.52529	-60.34043	385.83923	64.75504	-39.45091	411.58718	105.74990	-100.90473	-132.55024	478.64349	-265.88260	-144.43492	373.54164	-263.84637	-360.86787	144.72056	-235.27062	-446.22806	141.72135	-204.72265	-288.74320	42.46189	-250.59175	-252.40669	51.95833	-187.22244	248.87972	332.61172	-18.79641	163.58750	438.53945	-1.70446	176.54591	326.13349	1.47064	-214.49937	428.32376	-278.47690	-281.20926	325.45105	-278.74491	126.59585	811.93514	11.28662	162.36858	703.71062	0.92030	120.68279	665.55899	37.93932	24.57020	774.08656	48.52114	60.67712	663.44396	34.16939	-40.94919	727.23864	-328.32018	-61.61484	596.16303	-295.51483	-141.09006	752.59667	-277.09294	-161.18750	614.97234	-255.44454	95.73276	951.79454	-33.44382	-105.32041	982.43955	-69.53342	55.36470	923.97992	-281.57986	-129.80388	983.48066	-167.27419	-114.18464	1397.82429	-145.02832	1.06231	1355.66320	23.66219	-49.12047	1363.91995	-330.74480	26.72006	1361.46895	-137.74449	28.49213	1362.08391	-180.63776	4.76177	1225.09187	91.27162	-92.02899	1024.71978	81.77311	-56.73547	1042.54874	142.55165	8.64988	914.35342	143.73369	38.95984	785.24688	146.53261	19.77115	779.34928	179.44486	-10.63535	1261.21071	-397.26602	-33.10445	1019.73900	-398.50297	13.49493	1056.69395	-451.32230	97.04388	983.27010	-403.62205	178.75831	851.88175	-375.18827	182.95173	851.54003	-409.46766	19.48930	869.41770	-34.40494	-22.09057	854.92878	-236.12085	28.17374	860.48419	-52.89500	-12.38643	862.20955	-214.81677	
5	0.04000000	193.81398	498.10156	-19.15039	246.73319	444.75834	-46.87315	271.26862	99.41176	-38.80585	204.60223	62.80182	-61.11387	388.41089	59.38844	-40.71531	415.49225	98.91079	-102.74089	-116.54123	477.51409	-266.07939	-131.12255	372.84964	-264.96165	-353.82826	149.82668	-236.06674	-438.83371	151.24231	-204.74112	-287.28830	43.18234	-250.59609	-250.03968	51.37781	-187.50834	258.84983	331.21926	-19.89101	175.78787	438.60490	-1.28378	186.82920	326.05413	1.90029	-199.68128	429.70640	-278.32611	-269.51650	328.88418	-278.82840	140.83725	812.46414	11.47635	175.69681	704.04239	0.95673	134.18424	666.09596	38.11864	38.72344	775.09041	49.26933	74.10430	664.20735	34.89606	-27.36256	726.80983	-327.52292	-46.64775	595.32649	-295.50914	-127.00398	750.95950	-275.01153	-145.75373	613.24547	-253.77749	109.78617	952.61509	-32.56443	-91.52376	982.91181	-68.75933	69.05839	923.80893	-280.50588	-116.09915	983.36868	-166.51539	-100.66987	1397.61744	-143.24095	15.12681	1355.35486	25.08037	-36.00298	1363.94435	-329.16869	40.37284	1361.37605	-136.30532	41.93414	1362.05906	-179.24380	18.67756	1224.63637	92.47714	-79.02995	1024.74068	82.73171	-43.58274	1042.32186	143.49405	20.52493	913.52507	144.97261	49.32853	784.14730	148.15062	30.13699	778.52333	181.07123	2.32276	1261.02541	-395.37577	-20.52603	1019.61415	-395.86823	26.05282	1056.30856	-448.98507	109.67671	983.04710	-401.18349	191.49993	851.85267	-372.50347	195.65800	851.36435	-406.79137	33.51236	870.16862	-33.17964	-8.17539	854.76944	-234.80678	42.19013	861.38140	-51.43654	1.49440	862.13934	-213.31758	
6	0.05000000	206.29676	498.29223	-19.25224	258.07378	443.60286	-47.61560	274.90438	97.98030	-39.24289	206.64735	63.88928	-61.73773	390.48543	54.89340	-41.72320	418.67397	92.94900	-104.28924	-99.18603	476.19823	-266.78927	-116.56294	372.18734	-266.57826	-345.51276	155.34326	-237.03789	-429.75943	161.80712	-204.86775	-285.51580	44.25059	-250.58625	-247.27992	50.95131	-187.83021	268.31689	329.84442	-20.92207	187.72599	438.79507	-0.87775	196.66911	326.14967	2.42336	-183.46350	431.15098	-278.48900	-256.41598	332.51701	-279.11789	154.89754	813.27386	11.79633	189.31160	704.64877	0.97942	148.09257	666.94457	38.49496	53.01421	776.24359	50.23137	87.94336	665.14728	35.88403	-13.28493	726.52637	-326.75831	-30.74591	594.52563	-295.83950	-112.50359	749.00007	-272.99378	-129.38142	611.13344	-252.40690	123.75090	953.69435	-31.63258	-77.76347	983.51557	-67.97324	82.87721	923.91603	-279.33641	-102.39191	983.38161	-165.74803	-87.13973	1397.54206	-141.42225	29.30519	1355.23462	26.47487	-22.89197	1364.17642	-327.55176	54.05701	1361.43175	-134.86705	55.35654	1362.17677	-177.85125	32.83358	1224.36520	93.62790	-65.85454	1024.98507	83.72548	-30.18451	1042.29063	144.44779	32.64292	912.93044	146.14836	59.99937	783.28161	149.66076	40.85825	777.93473	182.60680	15.24735	1261.06073	-393.50690	-8.35618	1019.76939	-393.37631	38.26713	1056.12986	-446.78705	121.86459	982.91836	-398.91505	203.73786	851.84620	-369.98884	207.79827	851.19235	-404.29356	47.54411	871.12768	-31.90979	5.86425	854.82785	-233.46954	56.23007	862.53349	-49.95714	15.47379	862.31346	-211.76043	
